Results
version=1
nRows=29
nColumns=24
inDegrees=yes
endheader
time	pelvis_tilt	pelvis_list	pelvis_rotation	pelvis_tx	pelvis_ty	pelvis_tz	hip_flexion_r	hip_adduction_r	hip_rotation_r	knee_angle_r	ankle_angle_r	subtalar_angle_r	mtp_angle_r	hip_flexion_l	hip_adduction_l	hip_rotation_l	knee_angle_l	ankle_angle_l	subtalar_angle_l	mtp_angle_l	lumbar_extension	lumbar_bending	lumbar_rotation
      0.50300000	     -6.83639377	      3.55059504	      3.41088378	     -0.75913672	      0.97948217	      0.28847152	     32.73454539	     -2.06076174	     -1.82993787	    -10.45516174	      3.18724199	     -8.91879159	     -0.04393217	     -8.27653439	      8.41483122	      1.46756973	     -4.11546571	      9.41527993	     -2.28805696	      0.23344461	      2.48043434	     -2.32967954	      0.24776501
      0.50716667	     -6.85985516	      3.54485234	      3.40205400	     -0.75322147	      0.97891568	      0.28863050	     32.63073435	     -1.97888492	     -1.85544610	    -10.37642688	      3.02175761	     -8.86613412	     -0.03431586	     -8.35186132	      8.38554702	      1.51008513	     -4.62305014	      9.45300076	     -2.35145750	      0.23774983	      2.54790971	     -2.32035501	      0.23099147
      0.51133333	     -6.89862803	      3.52875952	      3.41102372	     -0.74726200	      0.97839387	      0.28876666	     32.53686161	     -1.90026890	     -1.91960556	    -10.35703717	      2.72376706	     -8.82290712	     -0.01451700	     -8.36963377	      8.34146927	      1.53337654	     -5.20702877	      9.48622874	     -2.32844718	      0.25423117	      2.64408790	     -2.29583537	      0.20146956
      0.51550000	     -6.92706411	      3.50259610	      3.40257346	     -0.74126661	      0.97792018	      0.28892847	     32.43438037	     -1.80210593	     -1.94181451	    -10.40862341	      2.39958222	     -8.79062268	      0.02546738	     -8.37107354	      8.28606851	      1.51388434	     -5.84186949	      9.50774148	     -2.23530431	      0.28949957	      2.72482258	     -2.24966033	      0.16815011
      0.51966667	     -6.97054371	      3.47410652	      3.38587179	     -0.73523189	      0.97746836	      0.28912638	     32.34059488	     -1.69578215	     -1.93222775	    -10.50353713	      2.05136239	     -8.81794667	      0.13594902	     -8.31168190	      8.22429050	      1.41934371	     -6.56002573	      9.53471816	     -2.04516599	      0.38967465	      2.84735884	     -2.22287555	      0.13332489
      0.52383333	     -7.00464239	      3.45382808	      3.34902086	     -0.72919272	      0.97705784	      0.28931562	     32.26293592	     -1.59435876	     -1.91847151	    -10.69848669	      1.63505398	     -8.81257261	      0.19575370	     -8.25687676	      8.18118806	      1.42339722	     -7.28470770	      9.49592244	     -2.04541543	      0.45141137	      2.93489243	     -2.17712732	      0.14806295
      0.52800000	     -7.06120834	      3.42610004	      3.30465458	     -0.72311489	      0.97666782	      0.28955543	     32.19487797	     -1.47644000	     -1.83842437	    -10.91573051	      1.24208897	     -8.93615422	      0.44389422	     -8.11508166	      8.12081746	      1.28526881	     -8.12582664	      9.47615374	     -1.82246306	      0.71270477	      3.07370859	     -2.13747973	      0.15844794
      0.53216667	     -7.09585981	      3.38902218	      3.24593280	     -0.71700899	      0.97635033	      0.28980216	     32.10602162	     -1.34529004	     -1.74743311	    -11.17329115	      0.76973563	     -9.08344102	      0.96909053	     -7.97707548	      8.05170518	      1.17641396	     -8.99805443	      9.40147508	     -1.67174731	      1.30571399	      3.18449117	     -2.07383695	      0.21654052
      0.53633333	     -7.09269679	      3.37373690	      3.17844887	     -0.71086830	      0.97613801	      0.29000636	     31.98810763	     -1.24509637	     -1.69403950	    -11.48546079	      0.26003599	     -9.02795730	      1.03491545	     -7.89339748	      8.01655838	      1.19869221	     -9.83755124	      9.17202803	     -1.75993961	      1.39148782	      3.24020753	     -2.03080388	      0.23819324
      0.54050000	     -7.11471774	      3.35442490	      3.10163090	     -0.70472920	      0.97592355	      0.29024409	     31.90539396	     -1.13634288	     -1.60886103	    -11.84161791	     -0.23604308	     -9.04127718	      1.11839338	     -7.71788412	      7.97252694	      1.14057007	    -10.79389124	      8.95578495	     -1.73280461	      1.51408492	      3.33615284	     -1.97977391	      0.28474891
      0.54466667	     -7.16864737	      3.32135626	      3.01694683	     -0.69860157	      0.97568240	      0.29057398	     31.85675883	     -0.99854515	     -1.44003370	    -12.22681424	     -0.62535974	     -9.29065013	      1.45374281	     -7.42286452	      7.89565664	      0.92468601	    -11.90998953	      8.83005186	     -1.43548166	      2.03932821	      3.47963346	     -1.92910031	      0.40432656
      0.54883333	     -7.15429621	      3.30054279	      2.91421648	     -0.69241795	      0.97560632	      0.29084377	     31.73952204	     -0.88269160	     -1.33246410	    -12.62858611	     -1.17337006	     -9.26945664	      1.54253580	     -7.22888122	      7.84730539	      0.86409355	    -12.95407528	      8.43541524	     -1.45579238	      2.19872300	      3.53034536	     -1.86768528	      0.44485954
      0.55300000	     -7.18913480	      3.27597558	      2.81805513	     -0.68628306	      0.97547193	      0.29118586	     31.67500396	     -0.75536054	     -1.14256858	    -13.04558647	     -1.64529850	     -9.63354907	      4.54530663	     -6.88828485	      7.77505465	      0.67864401	    -14.16391753	      8.02465248	     -1.37892055	      7.87304342	      3.65119242	     -1.82682604	      0.53477575
      0.55716667	     -7.19226566	      3.24314807	      2.71492578	     -0.68012665	      0.97541943	      0.29149588	     31.59442480	     -0.63376213	     -1.03586371	    -13.51191566	     -2.07261362	     -9.57474396	      4.56839637	     -6.54458101	      7.69312365	      0.49771995	    -15.44230316	      7.64955930	     -1.18794125	      7.92306005	      3.73278516	     -1.76401440	      0.64691294
      0.56133333	     -7.22744370	      3.21253619	      2.60400295	     -0.67401089	      0.97533921	      0.29184967	     31.56439628	     -0.50715140	     -0.88712628	    -14.02121900	     -2.43299500	     -9.65969969	      4.59778479	     -6.10837552	      7.60539158	      0.28208571	    -16.81926158	      7.23207320	     -0.96615272	      8.03078025	      3.84728067	     -1.70733057	      0.76262845
      0.56550000	     -7.21411814	      3.15363206	      2.48545088	     -0.66789555	      0.97536143	      0.29223685	     31.47686479	     -0.34732395	     -0.72951305	    -14.52781762	     -2.75316643	     -9.79929883	      4.63506179	     -5.67240224	      7.47119679	      0.01319426	    -18.27651698	      6.76669200	     -0.68452344	      8.21624703	      3.90501741	     -1.61457660	      0.88864541
      0.56966667	     -7.23345581	      3.08916041	      2.36546293	     -0.66182915	      0.97534714	      0.29265158	     31.43684538	     -0.17775674	     -0.53811352	    -15.06752135	     -3.01043750	    -10.12591655	      5.27876097	     -5.14922015	      7.32287253	     -0.25747514	    -19.80676631	      6.16968776	     -0.51170460	     12.12338067	      3.98920209	     -1.51087984	      0.99163105
      0.57383333	     -7.19832315	      3.01589677	      2.24932989	     -0.65576075	      0.97543494	      0.29305382	     31.34209151	     -0.01535576	     -0.42850537	    -15.61625862	     -3.23468188	    -10.09722206	      5.28559576	     -4.63545304	      7.14859100	     -0.55748197	    -21.41877459	      5.56759081	     -0.17701505	     12.18734445	      4.02004817	     -1.40741474	      1.12261574
      0.57800000	     -7.16543472	      2.91226278	      2.13811146	     -0.64975407	      0.97552547	      0.29349772	     31.25306061	      0.18481704	     -0.28525646	    -16.18115834	     -3.36526154	    -10.35584294	      5.29187058	     -4.05764502	      6.92286151	     -0.87866938	    -23.12678794	      4.94693756	      0.20752507	     12.49387687	      4.03358668	     -1.26688354	      1.27904221
      0.58216667	     -7.17608390	      2.82802450	      2.02187802	     -0.64379843	      0.97555410	      0.29392739	     31.22696602	      0.35884984	     -0.15363228	    -16.77427746	     -3.44660370	    -10.35394257	      5.29521918	     -3.39156550	      6.71800907	     -1.17885574	    -24.88897876	      4.22037395	      0.47780548	     12.66380070	      4.10986422	     -1.15627128	      1.37408425
      0.58633333	     -7.16147922	      2.70950237	      1.91145372	     -0.63790199	      0.97561750	      0.29438269	     31.18286491	      0.56674901	     -0.04601589	    -17.39042021	     -3.46557839	    -10.49111229	      5.29030459	     -2.69751516	      6.45353881	     -1.50683669	    -26.72906319	      3.46985168	      0.83167203	     12.94807858	      4.13401291	     -1.00265788	      1.49483671
      0.59050000	     -7.10984867	      2.56024309	      1.81667941	     -0.63199643	      0.97577924	      0.29482705	     31.05704466	      0.80041338	      0.07205503	    -17.93091497	     -3.39605160	    -10.54742438	      5.28511206	     -2.01648347	      6.14432645	     -1.79827813	    -28.59448328	      2.58998303	      1.12524559	     13.17482224	      4.13126429	     -0.82063596	      1.59587582
      0.59466667	     -7.05322641	      2.39739715	      1.71614261	     -0.62617620	      0.97592173	      0.29530847	     30.94795048	      1.05301307	      0.17366797	    -18.51350189	     -3.32476651	    -10.75746061	      4.92555512	     -1.29139899	      5.79839023	     -2.12640415	    -30.51082720	      1.62520646	      1.38461696	     18.11539611	      4.09512091	     -0.61012344	      1.69454924
      0.59883333	     -7.02527235	      2.23706725	      1.62377840	     -0.62042354	      0.97601357	      0.29574876	     30.87504731	      1.29112559	      0.24376882	    -19.10554157	     -3.15317050	    -10.79143621	      4.92374271	     -0.50227379	      5.45805381	     -2.40203052	    -32.47280399	      0.67980875	      1.65397714	     18.14425781	      4.09569312	     -0.41408677	      1.80410072
      0.60300000	     -6.97029667	      2.04166423	      1.53991922	     -0.61471378	      0.97615021	      0.29621154	     30.75270390	      1.56567152	      0.30861945	    -19.65769354	     -2.94929862	    -10.87414556	      4.91206767	      0.29266571	      5.06202461	     -2.67391578	    -34.46659363	     -0.31164340	      1.92296487	     18.19669501	      4.06064927	     -0.17945069	      1.89821665
      0.60716667	     -6.91602028	      1.83031830	      1.46738085	     -0.60904724	      0.97629618	      0.29665509	     30.60862207	      1.85112677	      0.36256260	    -20.16406759	     -2.69740245	    -10.93677231	      4.89763392	      1.11214321	      4.64265891	     -2.91731517	    -36.47128022	     -1.35118408	      2.13111529	     18.24682285	      4.02433231	      0.05550945	      1.98584564
      0.61133333	     -6.86307733	      1.59835973	      1.39628991	     -0.60344899	      0.97643827	      0.29710862	     30.46175786	      2.15882436	      0.40291847	    -20.65951726	     -2.43127122	    -11.03646341	      4.87274097	      1.96011126	      4.19199330	     -3.14484349	    -38.48648669	     -2.40810300	      2.33346215	     18.29852793	      3.98132162	      0.32580044	      2.07101914
      0.61550000	     -6.82686389	      1.37089425	      1.32771365	     -0.59792734	      0.97653841	      0.29753699	     30.32966118	      2.45972166	      0.43845965	    -21.14440416	     -2.14371109	    -11.15030215	      4.83381888	      2.84442463	      3.74893800	     -3.33441709	    -40.49426741	     -3.48559893	      2.49117118	     18.34324132	      3.94119541	      0.60659984	      2.15133780
      0.61966667	     -6.76889015	      1.11743431	      1.27371724	     -0.59243499	      0.97669698	      0.29795935	     30.13514876	      2.78243110	      0.45643462	    -21.54944178	     -1.82710138	    -11.21616492	      4.79738180	      3.72228469	      3.26933565	     -3.50527064	    -42.48593295	     -4.58097517	      2.58066093	     18.35468453	      3.87949126	      0.88834586	      2.22280232
